<svg id="visual" viewBox="0 0 900 600" width="900" height="600" xmlns="http://www.w3.org/2000/svg" xmlns:xlink="http://www.w3.org/1999/xlink" version="1.1"><rect x="0" y="0" width="900" height="600" fill="#001220"></rect><path d="M0 210L21.5 210.7C43 211.3 86 212.7 128.8 210.7C171.7 208.7 214.3 203.3 257.2 204.2C300 205 343 212 385.8 218.2C428.7 224.3 471.3 229.7 514.2 229.2C557 228.7 600 222.3 642.8 214.2C685.7 206 728.3 196 771.2 192.5C814 189 857 192 878.5 193.5L900 195L900 0L878.5 0C857 0 814 0 771.2 0C728.3 0 685.7 0 642.8 0C600 0 557 0 514.2 0C471.3 0 428.7 0 385.8 0C343 0 300 0 257.2 0C214.3 0 171.7 0 128.8 0C86 0 43 0 21.5 0L0 0Z" fill="#39376e"></path><path d="M0 133L21.5 139.3C43 145.7 86 158.3 128.8 159.3C171.7 160.3 214.3 149.7 257.2 148C300 146.3 343 153.7 385.8 154.3C428.7 155 471.3 149 514.2 144.7C557 140.3 600 137.7 642.8 143.7C685.7 149.7 728.3 164.3 771.2 171.7C814 179 857 179 878.5 179L900 179L900 0L878.5 0C857 0 814 0 771.2 0C728.3 0 685.7 0 642.8 0C600 0 557 0 514.2 0C471.3 0 428.7 0 385.8 0C343 0 300 0 257.2 0C214.3 0 171.7 0 128.8 0C86 0 43 0 21.5 0L0 0Z" fill="#69367b"></path><path d="M0 107L21.5 108.8C43 110.7 86 114.3 128.8 118.8C171.7 123.3 214.3 128.7 257.2 123C300 117.3 343 100.7 385.8 97C428.7 93.3 471.3 102.7 514.2 109.7C557 116.7 600 121.3 642.8 125.2C685.7 129 728.3 132 771.2 129.5C814 127 857 119 878.5 115L900 111L900 0L878.5 0C857 0 814 0 771.2 0C728.3 0 685.7 0 642.8 0C600 0 557 0 514.2 0C471.3 0 428.7 0 385.8 0C343 0 300 0 257.2 0C214.3 0 171.7 0 128.8 0C86 0 43 0 21.5 0L0 0Z" fill="#9a2e79"></path><path d="M0 55L21.5 52C43 49 86 43 128.8 43.7C171.7 44.3 214.3 51.7 257.2 58.7C300 65.7 343 72.3 385.8 69.5C428.7 66.7 471.3 54.3 514.2 51C557 47.7 600 53.3 642.8 59.3C685.7 65.3 728.3 71.7 771.2 75.5C814 79.3 857 80.7 878.5 81.3L900 82L900 0L878.5 0C857 0 814 0 771.2 0C728.3 0 685.7 0 642.8 0C600 0 557 0 514.2 0C471.3 0 428.7 0 385.8 0C343 0 300 0 257.2 0C214.3 0 171.7 0 128.8 0C86 0 43 0 21.5 0L0 0Z" fill="#c62368"></path></svg>